<svg xmlns="http://www.w3.org/2000/svg" viewBox="0 0 64 64"><title>yisheng</title><path d="M399.265,315.914a32,32,0,1,0,32-32,32,32,0,0,0-32,32Zm0,0" transform="translate(-399.265 -283.914)" style="fill:#bff9f1"/><path d="M431.265,347.914a31.912,31.912,0,0,0,23.4-10.174.73.73,0,0,0-.166-.4c-.882-1.073-4.7-3.852-8.47-5.692a31.235,31.235,0,0,0-9.231-2.821L430.158,347.9c.367.012.736.019,1.107.019Zm0,0" transform="translate(-399.265 -283.914)" style="fill:#fff"/><path d="M431.265,347.914c.175,0,.349,0,.524,0l-6.48-19.521a31.271,31.271,0,0,0-9.231,2.821c-3.774,1.841-7.588,4.619-8.47,5.692a.727.727,0,0,0-.163.381,31.919,31.919,0,0,0,23.82,10.632Zm0,0" transform="translate(-399.265 -283.914)" style="fill:#fff"/><rect x="26.812" y="41.414" width="9.724" height="6.721" style="fill:#f6caa9"/><path d="M443.725,311.477c0,7.914-5.682,14.33-12.691,14.33s-12.693-6.416-12.693-14.33,5.683-14.33,12.693-14.33,12.691,6.416,12.691,14.33" transform="translate(-399.265 -283.914)" style="fill:#f6caa9"/><path d="M426.167,327.174s-1.09-.244-.83,1.388c.285,1.8,5.659,16.924,5.659,16.924l5.685-16.2s.519-2.161-.8-1.987L431,331.5Zm0,0" transform="translate(-399.265 -283.914)" style="fill:#88ddd1"/><path d="M432.962,339.892s-1.077-4.861-1.116-5.054.351-.733.351-1.042-.273-.5-.623-.887a4.227,4.227,0,0,1-.624-1.144v.036a4.1,4.1,0,0,1-.616,1.127c-.351.386-.623.579-.623.888s.389.848.35,1.041-1.012,4.9-1.012,4.9l1.986,5.768-.039-.038Zm0,0" transform="translate(-399.265 -283.914)" style="fill:#3bae9e"/><path d="M419.946,312.317a1.959,1.959,0,1,1-1.95-2.142,2.054,2.054,0,0,1,1.95,2.142m26.048-.026a1.958,1.958,0,1,1-1.949-2.143,2.053,2.053,0,0,1,1.949,2.143" transform="translate(-399.265 -283.914)" style="fill:#f6caa9"/><path d="M438.124,301.818s3.545,1.616,1.135,2.81c-2.2.632-6.737.211-8.864-.07a74.431,74.431,0,0,1-8.048-2.248l.178,1.44a49.758,49.758,0,0,0,8.225,2.142c3.722.527,7.87,1.054,9.643-.28a2.522,2.522,0,0,0,1.135-2.67s1.949-.21,2.162-.632l-.638-1.194s-.745.421-4.928.7" transform="translate(-399.265 -283.914)" style="fill:#ecb485"/><path d="M438.951,296.164s5.862-2.623-1.418-3.84-14.842,2.622-16.639,6.556c0,0-3.214-.562-3.876,6.181,0,4.122.662,5.152.662,5.152s1.016-.281.945,2.388c0,0,.78.913,1.134-.07a6.966,6.966,0,0,0-.07-2.388s3.12-1.686,2.836-7.657a28.184,28.184,0,0,0,8.438,2.177,32.8,32.8,0,0,0,8.083.071A6.972,6.972,0,0,0,441.882,310l-.142,2.318a.575.575,0,0,0,.567.492c.5,0,.568-.773.568-.773s-.071-1.686,1.063-1.9c0,0,1.347-5.058-.354-8.992,0,0,2.34-.913,1.347-3.091s-5.98-1.9-5.98-1.9" transform="translate(-399.265 -283.914)" style="fill:#4a4a4a"/><path d="M426.1,324.711a10.7,10.7,0,0,0,4.518.952,11.263,11.263,0,0,0,5.192-.926v.951s-3.453,1.852-5.011,1.852-4.724-2.186-4.724-2.186Zm0,0" transform="translate(-399.265 -283.914)" style="fill:#ecb485"/><path d="M444.453,340.675h-2.3a.538.538,0,1,1,0-1.076h1.209v-1.98a.545.545,0,0,1,1.09,0Zm-5.049,0h-2.3V337.62a.545.545,0,0,1,1.09,0V339.6h1.21a.538.538,0,1,1,0,1.076Zm0,0" transform="translate(-399.265 -283.914)" style="fill:#88ddd1"/><path d="M443.992,302.321l-.163-.541-.245-.629a29.868,29.868,0,0,1-5.46.667s3.545,1.616,1.135,2.81c-.073.021-.149.041-.227.059.056.41.144.968.262,1.452a3.476,3.476,0,0,0,1.1-.527,2.522,2.522,0,0,0,1.135-2.67s2.251-.2,2.464-.621Zm0,0" transform="translate(-399.265 -283.914)" style="fill:#272727"/><path d="M421.242,339.865a3.481,3.481,0,0,0,.865-6.865.72.72,0,0,0,.008-.105v-3.879q-.812.205-1.612.454c0,.11,0,.22,0,.327v3.1c0,.026,0,.052,0,.077a3.481,3.481,0,0,0,.74,6.893Zm0-5.289a1.8,1.8,0,1,1-1.828,1.8,1.819,1.819,0,0,1,1.828-1.8Zm23.451,2.729v-.787a3.836,3.836,0,0,0-3.123-3.744V329.9q-.846-.26-1.7-.474v3.387a3.832,3.832,0,0,0-2.964,3.709v.787a.785.785,0,0,0,1.569,0v-.787a2.287,2.287,0,0,1,2.3-2.268h.054a2.286,2.286,0,0,1,2.3,2.268v.787a.785.785,0,0,0,1.57,0Zm0,0" transform="translate(-399.265 -283.914)" style="fill:#3bae9e"/></svg>