<svg id="组_964" data-name="组 964" xmlns="http://www.w3.org/2000/svg" width="15.176" height="14" viewBox="0 0 15.176 14">
  <path id="路径_4733" data-name="路径 4733" d="M316.554,2403.261v2.52a1.12,1.12,0,0,1-1.122,1.118H304.745a1.12,1.12,0,0,1-1.122-1.118v-9.528a1.12,1.12,0,0,1,1.122-1.118H308.4a.574.574,0,0,0,.57-.567.564.564,0,0,0-.57-.567h-3.652a2.24,2.24,0,0,0-2.245,2.236v9.528a2.241,2.241,0,0,0,2.245,2.236h10.687a2.241,2.241,0,0,0,2.245-2.236v-2.52a.574.574,0,0,0-.57-.567A.611.611,0,0,0,316.554,2403.261Z" transform="translate(-302.5 -2394)" fill="#fff"/>
  <path id="路径_4734" data-name="路径 4734" d="M339.264,2395.146h-3.755a.58.58,0,0,1-.575-.573.569.569,0,0,1,.575-.573h5.108a.5.5,0,0,1,.406.168.457.457,0,0,1,.169.4v5.088a.575.575,0,0,1-1.15,0v-3.74l-8.457,8.458a.561.561,0,1,1-.795-.792Z" transform="translate(-326.016 -2394)" fill="#fff"/>
</svg>
