<svg xmlns="http://www.w3.org/2000/svg" width="14" height="14.378" viewBox="0 0 14 14.378">
  <g id="组_359" data-name="组 359" transform="translate(-1356 -852.622)">
    <path id="路径_4610" data-name="路径 4610" d="M2057.47,1468.152a.513.513,0,0,0-.277-.146.484.484,0,0,0-.424,0,.513.513,0,0,0-.277.146l-5.363,5.342a.6.6,0,0,0,.848.844l4.466-4.449v9.516a.554.554,0,0,0,1.109,0v-9.516l4.466,4.449a.6.6,0,1,0,.848-.844Z" transform="translate(-693.945 -615.335)" fill="#fff"/>
    <rect id="矩形_873" data-name="矩形 873" width="14" height="1" rx="0.5" transform="translate(1356 866)" fill="#fff"/>
  </g>
</svg>
