<svg id="组_6" data-name="组 6" xmlns="http://www.w3.org/2000/svg" width="13.689" height="16" viewBox="0 0 13.689 16">
  <path id="路径_4739" data-name="路径 4739" d="M2291.028,2775.232h-2.415a.618.618,0,0,0-.613.61.607.607,0,0,0,.613.61h2.415a.61.61,0,1,0,0-1.221Zm3.027-3.016h-5.442a.618.618,0,0,0-.613.61.606.606,0,0,0,.613.61h5.442a.61.61,0,1,0,0-1.221Zm0-3.016h-5.442a.61.61,0,1,0,0,1.221h5.442a.618.618,0,0,0,.613-.61A.63.63,0,0,0,2294.055,2769.2Z" transform="translate(-2284.481 -2763.653)" fill="#535be9"/>
  <path id="路径_4740" data-name="路径 4740" d="M2278.514,2738.482h-.425a1.745,1.745,0,0,0-1.665-1.182h-3.56a1.768,1.768,0,0,0-1.664,1.182h-.425a2.987,2.987,0,0,0-2.975,2.963v8.891a2.987,2.987,0,0,0,2.975,2.964h7.739a2.987,2.987,0,0,0,2.975-2.964v-8.891A2.976,2.976,0,0,0,2278.514,2738.482Zm-5.649,0h3.56a.6.6,0,1,1,0,1.2h-3.56a.607.607,0,0,1-.6-.6A.6.6,0,0,1,2272.865,2738.482Zm7.438,11.854a1.792,1.792,0,0,1-1.789,1.782h-7.739a1.791,1.791,0,0,1-1.788-1.782v-8.891a1.791,1.791,0,0,1,1.788-1.781h.425a1.745,1.745,0,0,0,1.664,1.182h3.56a1.769,1.769,0,0,0,1.665-1.182h.425a1.791,1.791,0,0,1,1.789,1.781v8.891Z" transform="translate(-2267.8 -2737.3)" fill="#535be9"/>
</svg>
